<svg xmlns="http://www.w3.org/2000/svg" viewBox="0 0 800 500" width="100%" height="100%">
  <rect width="800" height="500" fill="#1e1e2e" rx="15" />

  <text x="400" y="50" font-family="sans-serif" font-weight="bold" font-size="24" fill="#cdd6f4" text-anchor="middle">
    Pieza Finalizada: Lista para Usar
  </text>

  <g transform="translate(450, 400)">
    <ellipse cx="0" cy="20" rx="120" ry="30" fill="#11111b" opacity="0.5" />
    <path d="M -100 0 L -100 15 A 100 25 0 0 0 100 15 L 100 0 Z" fill="#313244" stroke="#45475a" stroke-width="2"/>
    <ellipse cx="0" cy="0" rx="100" ry="25" fill="#45475a" stroke="#585b70" stroke-width="2" />
    <ellipse cx="0" cy="0" rx="80" ry="20" fill="#313244" />
  </g>

  <g transform="translate(450, 385)">
    <polygon points="-30,0 30,0 50,-60 0,-100 -50,-60" fill="#cba6f7" stroke="#b4befe" stroke-width="2" stroke-linejoin="round" />
    <polygon points="-30,0 -50,-60 -80,-40 -50,5" fill="#89b4fa" stroke="#b4befe" stroke-width="2" stroke-linejoin="round" />
    <polygon points="30,0 50,-60 80,-40 50,5" fill="#f5c2e7" stroke="#b4befe" stroke-width="2" stroke-linejoin="round" />
    <polygon points="0,-100 -50,-60 -70,-120 -20,-130" fill="#b4befe" stroke="#cdd6f4" stroke-width="2" stroke-linejoin="round" />
    <polygon points="0,-100 50,-60 70,-120 20,-130" fill="#f38ba8" stroke="#cdd6f4" stroke-width="2" stroke-linejoin="round" />
    <polygon points="-20,-130 0,-100 20,-130 0,-140" fill="#181825" stroke="#cdd6f4" stroke-width="2" stroke-linejoin="round" />

    <path d="M 0,-120 Q -30,-160 -50,-140 Q -20,-120 0,-120" fill="#a6e3a1" stroke="#94e2d5" stroke-width="2" />
    <path d="M 0,-120 Q 30,-160 50,-140 Q 20,-120 0,-120" fill="#a6e3a1" stroke="#94e2d5" stroke-width="2" />
    <path d="M 0,-125 Q -10,-180 0,-190 Q 10,-180 0,-125" fill="#94e2d5" stroke="#74c7ec" stroke-width="2" />
    <path d="M -10,-125 Q -40,-150 -60,-170 Q -30,-140 -10,-125" fill="#89dceb" stroke="#74c7ec" stroke-width="2" />
    <path d="M 10,-125 Q 40,-150 60,-170 Q 30,-140 10,-125" fill="#89dceb" stroke="#74c7ec" stroke-width="2" />
  </g>

  <g stroke="#f9e2af" stroke-width="2" stroke-linecap="round">
    <path d="M 330 200 L 330 210 M 325 205 L 335 205" />
    <path d="M 570 160 L 570 176 M 562 168 L 578 168" stroke-width="3" />
    <path d="M 380 140 L 380 146 M 377 143 L 383 143" />
  </g>

  <g transform="translate(60, 160)" font-family="sans-serif">
    <rect width="240" height="180" fill="#313244" rx="10" stroke="#45475a" stroke-width="2" />
    <path d="M 0 10 C 0 4.477 4.477 0 10 0 L 230 0 C 235.523 0 240 4.477 240 10 L 240 40 L 0 40 Z" fill="#45475a" />
    
    <circle cx="25" cy="20" r="10" fill="#a6e3a1" />
    <path d="M 20 20 L 23 24 L 30 16" fill="none" stroke="#1e1e2e" stroke-width="2" stroke-linecap="round" stroke-linejoin="round" />
    
    <text x="45" y="25" font-weight="bold" font-size="14" fill="#cdd6f4">Impresión Exitosa</text>

    <text x="20" y="70" font-size="13" fill="#a6adc8">Tiempo total:</text>
    <text x="220" y="70" font-size="14" font-weight="bold" fill="#89b4fa" text-anchor="end">14h 32m</text>

    <text x="20" y="100" font-size="13" fill="#a6adc8">Material usado:</text>
    <text x="220" y="100" font-size="14" font-weight="bold" fill="#cba6f7" text-anchor="end">145 g (PLA)</text>

    <text x="20" y="130" font-size="13" fill="#a6adc8">Resolución:</text>
    <text x="220" y="130" font-size="14" font-weight="bold" fill="#f9e2af" text-anchor="end">0.12 mm</text>

    <text x="20" y="160" font-size="13" fill="#a6adc8">Estado final:</text>
    <rect x="150" y="146" width="70" height="20" rx="10" fill="#a6e3a1" fill-opacity="0.2" stroke="#a6e3a1" stroke-width="1" />
    <text x="185" y="160" font-size="12" font-weight="bold" fill="#a6e3a1" text-anchor="middle">100% OK</text>
  </g>

</svg>
