<svg xmlns="http://www.w3.org/2000/svg" viewBox="0 0 800 500" width="100%" height="100%">
  <rect width="800" height="500" fill="#1e1e2e" rx="15" />

  <text x="400" y="50" font-family="sans-serif" font-weight="bold" font-size="24" fill="#cdd6f4" text-anchor="middle">
    Post-Procesado: Limpieza y Retiro de Soportes
  </text>

  <g transform="translate(450, 380)">
    <path d="M 0 0 L 250 -100 L 0 -200 L -250 -100 Z" fill="#181825" stroke="#313244" stroke-width="4" />
    <g stroke="#313244" stroke-width="1.5">
       <path d="M -200 -120 L 50 -20" />
       <path d="M -150 -140 L 100 -40" />
       <path d="M -100 -160 L 150 -60" />
       <path d="M -50 -180 L 200 -80" />
       
       <path d="M 200 -120 L -50 -20" />
       <path d="M 150 -140 L -100 -40" />
       <path d="M 100 -160 L -150 -60" />
       <path d="M 50 -180 L -200 -80" />
    </g>
  </g>

  <g transform="translate(140, 140)">
    <rect x="5" y="40" width="60" height="100" rx="5" fill="#89dceb" fill-opacity="0.8" />
    <rect x="0" y="30" width="70" height="110" rx="10" fill="none" stroke="#bac2de" stroke-width="3" />
    <path d="M 20 30 L 20 15 L 50 15 L 50 30 Z" fill="#a6adc8" />
    <rect x="15" y="0" width="40" height="15" fill="#f38ba8" rx="3" />
    <rect x="10" y="55" width="50" height="60" fill="#cdd6f4" rx="5" />
    <text x="35" y="75" font-family="sans-serif" font-weight="bold" font-size="16" fill="#1e1e2e" text-anchor="middle">IPA</text>
    <text x="35" y="90" font-family="sans-serif" font-size="11" fill="#45475a" text-anchor="middle">99%</text>
    <rect x="15" y="100" width="40" height="5" fill="#89b4fa" />
  </g>

  <g transform="translate(450, 270)">
    <path d="M -40 -30 L 40 -30 L 60 20 L 0 50 L -60 20 Z" fill="#89b4fa" stroke="#b4befe" stroke-width="3" stroke-linejoin="round" />
    <path d="M -40 -30 L 0 0 L 40 -30 M 0 0 L 0 50" fill="none" stroke="#b4befe" stroke-width="3" />
    <path d="M -60 20 L 0 0 L 60 20" fill="none" stroke="#b4befe" stroke-width="3" />

    <g stroke="#cba6f7" stroke-width="3" stroke-dasharray="4 3" stroke-linecap="round">
       <line x1="-50" y1="25" x2="-50" y2="80" />
       <line x1="-30" y1="35" x2="-30" y2="90" />
       <line x1="-50" y1="50" x2="-30" y2="65" />
       
       <line x1="50" y1="25" x2="50" y2="55" />
       <line x1="30" y1="35" x2="30" y2="65" />
    </g>
    
    <path d="M 60 100 L 70 80 L 85 105 Z" fill="none" stroke="#cba6f7" stroke-width="3" stroke-dasharray="4 3" />
  </g>

  <g transform="translate(500, 305) rotate(-35)">
    <path d="M 15 30 C 35 60, 25 110, 25 110 L 5 110 C 5 110, 15 70, -5 30 Z" fill="#f38ba8" />
    <path d="M -15 30 C -35 60, -25 110, -25 110 L -5 110 C -5 110, -15 70, 5 30 Z" fill="#f38ba8" />
    <path d="M 15 30 L 0 10 L 0 -20 L -5 -20 L -5 10 L -15 30 Z" fill="#a6adc8" />
    <path d="M 0 10 L 0 -20 L 5 -20 L 5 10 Z" fill="#bac2de" />
    <circle cx="0" cy="22" r="4" fill="#313244" />
    <path d="M -15 -30 L -25 -40 M 0 -35 L 0 -50 M 15 -30 L 25 -40" stroke="#f9e2af" stroke-width="3" stroke-linecap="round" />
  </g>

  <g transform="translate(40, 290)" font-family="sans-serif">
    <rect width="260" height="150" fill="#313244" rx="10" stroke="#45475a" stroke-width="2" />
    <path d="M 0 10 C 0 4.477 4.477 0 10 0 L 250 0 C 255.523 0 260 4.477 260 10 L 260 40 L 0 40 Z" fill="#45475a" />
    <text x="130" y="25" font-weight="bold" font-size="14" fill="#cdd6f4" text-anchor="middle">Checklist de Limpieza</text>
    
    <circle cx="20" cy="65" r="8" fill="#a6e3a1" />
    <path d="M 16 65 L 19 68 L 25 62" fill="none" stroke="#1e1e2e" stroke-width="2" />
    <text x="40" y="70" font-size="13" fill="#a6adc8">Baño en solvente / IPA</text>

    <circle cx="20" cy="95" r="8" fill="#f9e2af" />
    <circle cx="20" cy="95" r="4" fill="#1e1e2e" />
    <text x="40" y="100" font-size="13" fill="#cdd6f4" font-weight="bold">Remover material de soporte</text>

    <circle cx="20" cy="125" r="8" fill="#45475a" />
    <text x="40" y="130" font-size="13" fill="#6c7086">Curado UV o Lijado final</text>
  </g>

</svg>
